<svg version="1.1" id="Layer_1" xmlns="http://www.w3.org/2000/svg" xmlns:xlink="http://www.w3.org/1999/xlink" x="0px" y="0px" viewBox="0 0 500 500" style="width: 164px;" xml:space="preserve" data-imageid="authentication-2-85" imageName="Authentication 2" class="illustrations_image">
<style type="text/css">
	.st0_authentication-2-85{fill:#68E1FD;}
	.st1_authentication-2-85{fill:#093F68;}
	.st2_authentication-2-85{fill:#FFFFFF;}
	.st3_authentication-2-85{fill:#DFEAEF;}
	.st4_authentication-2-85{fill:#FFBC0E;}
</style>
<g id="device_authentication-2-85">
	<path class="st0_authentication-2-85 targetColor" d="M175.9,92.6h173.3c12.6,0,22.9,10.2,22.9,22.9v273.3c0,12.6-10.2,22.9-22.9,22.9H175.9&#10;&#9;&#9;c-12.6,0-22.9-10.2-22.9-22.9V115.5C153.1,102.9,163.3,92.6,175.9,92.6z" style="fill: rgb(104, 225, 253);"/>
	<path class="st1_authentication-2-85" d="M347.5,413.6h-170c-14.5,0-26.3-11.8-26.3-26.4V117.1c0-14.6,11.8-26.3,26.4-26.4h170&#10;&#9;&#9;c14.6,0,26.3,11.8,26.4,26.4v270.1C373.9,401.8,362.1,413.6,347.5,413.6z M177.5,94.5c-12.5,0-22.6,10.1-22.7,22.7v270.1&#10;&#9;&#9;c0,12.5,10.1,22.6,22.7,22.7h170c12.5,0,22.7-10.1,22.7-22.7V117.1c0-12.5-10.2-22.6-22.7-22.7L177.5,94.5z"/>
	<rect x="153.1" y="119.7" class="st1_authentication-2-85" width="219" height="256"/>
	<path class="st1_authentication-2-85" d="M372,377.5H153c-1,0-1.9-0.8-1.9-1.9l0,0v-256c0-1,0.8-1.8,1.9-1.8l0,0h219c1,0,1.9,0.8,1.9,1.8c0,0,0,0,0,0&#10;&#9;&#9;v256C373.9,376.7,373,377.5,372,377.5L372,377.5z M154.9,373.8h215.3V121.6H154.9L154.9,373.8z"/>
	<path class="st1_authentication-2-85" d="M262.5,402.3c-5.2,0-9.4-4.2-9.4-9.4s4.2-9.4,9.4-9.4s9.4,4.2,9.4,9.4c0,0,0,0,0,0&#10;&#9;&#9;C271.9,398.1,267.7,402.3,262.5,402.3z M262.5,387.3c-3.1,0-5.7,2.5-5.7,5.7c0,3.1,2.5,5.7,5.7,5.7c3.1,0,5.7-2.5,5.7-5.7&#10;&#9;&#9;c0,0,0,0,0,0C268.2,389.9,265.7,387.3,262.5,387.3C262.6,387.3,262.6,387.3,262.5,387.3L262.5,387.3z"/>
	<path class="st1_authentication-2-85" d="M282.6,108.3h-28.8c-1,0.1-1.9-0.7-2-1.7c-0.1-1,0.7-1.9,1.7-2c0.1,0,0.2,0,0.3,0h28.8c1,0.1,1.8,1,1.7,2&#10;&#9;&#9;C284.2,107.5,283.5,108.3,282.6,108.3z"/>
	<path class="st1_authentication-2-85" d="M247,108.3h-4.5c-1,0.1-1.9-0.7-2-1.7c-0.1-1,0.7-1.9,1.7-2c0.1,0,0.2,0,0.3,0h4.5c1-0.1,1.9,0.7,2,1.7&#10;&#9;&#9;c0.1,1-0.7,1.9-1.7,2C247.2,108.3,247.1,108.3,247,108.3z"/>
</g>
<g id="screen_authentication-2-85">
	<path class="st2_authentication-2-85" d="M120,153.9h220.7c2.6,0,4.7,2.1,4.7,4.7v165.1c0,2.6-2.1,4.7-4.7,4.7H120c-2.6,0-4.7-2.1-4.7-4.7V158.6&#10;&#9;&#9;C115.3,156,117.4,153.9,120,153.9z"/>
	<path class="st1_authentication-2-85" d="M336.7,330.2H124c-5.8,0-10.5-4.7-10.5-10.5V162.6c0-5.8,4.7-10.5,10.5-10.5h212.7c5.8,0,10.5,4.7,10.5,10.5&#10;&#9;&#9;v157.1C347.2,325.5,342.5,330.2,336.7,330.2z M124,155.8c-3.8,0-6.8,3.1-6.8,6.8v157.1c0,3.8,3.1,6.8,6.8,6.8h212.7&#10;&#9;&#9;c3.8,0,6.8-3.1,6.8-6.8V162.6c0-3.8-3.1-6.8-6.8-6.8H124z"/>
	<path class="st1_authentication-2-85" d="M214.5,210.1c-0.9,0-1.6-0.6-1.8-1.5l-4-18.3c-2.4-11.1,4.7-22.1,15.8-24.5c11.1-2.4,22.1,4.7,24.5,15.8&#10;&#9;&#9;c0.2,1-0.5,2-1.5,2.1c-0.9,0.1-1.8-0.4-2.1-1.3c-1.7-9.2-10.6-15.2-19.7-13.5s-15.2,10.6-13.5,19.7c0.1,0.3,0.1,0.6,0.2,0.9l4,18.3&#10;&#9;&#9;c0.2,1-0.4,2-1.4,2.2C214.8,210.1,214.7,210.1,214.5,210.1z"/>
	<path class="st0_authentication-2-85 targetColor" d="M203.9,204.7h53.3l0,0V242c0,5.1-4.1,9.2-9.2,9.2h-35c-5.1,0-9.2-4.1-9.2-9.2L203.9,204.7L203.9,204.7&#10;&#9;&#9;L203.9,204.7z" style="fill: rgb(104, 225, 253);"/>
	<path class="st1_authentication-2-85" d="M240.2,253h-19.4c-10.4,0-18.8-8.4-18.8-18.8v-29.6c0-1,0.8-1.8,1.8-1.8c0,0,0,0,0,0h53.3c1,0,1.8,0.8,1.8,1.8&#10;&#9;&#9;v29.6C259,244.6,250.6,253,240.2,253z M205.7,206.5v27.7c0,8.3,6.8,15.1,15.1,15.1h19.4c8.3,0,15.1-6.8,15.1-15.1v-27.7H205.7z"/>
	<circle class="st1_authentication-2-85" cx="230.8" cy="220.8" r="5.5"/>
	<path class="st1_authentication-2-85" d="M230.8,228.1c-4,0-7.3-3.3-7.3-7.3s3.3-7.3,7.3-7.3s7.3,3.3,7.3,7.3l0,0C238.1,224.8,234.9,228.1,230.8,228.1z&#10;&#9;&#9; M230.8,217.2c-2,0-3.6,1.6-3.6,3.6c0,2,1.6,3.6,3.6,3.6c2,0,3.6-1.6,3.6-3.6c0,0,0,0,0,0C234.4,218.8,232.8,217.2,230.8,217.2&#10;&#9;&#9;C230.8,217.2,230.8,217.2,230.8,217.2z"/>
	<path class="st1_authentication-2-85" d="M230.8,241.2c-1,0-1.8-0.8-1.8-1.8c0,0,0,0,0,0v-16.4c-0.1-1,0.7-1.9,1.7-2s1.9,0.7,2,1.7c0,0.1,0,0.2,0,0.3&#10;&#9;&#9;v16.4C232.7,240.3,231.8,241.2,230.8,241.2L230.8,241.2z"/>
	<path class="st3_authentication-2-85" d="M300.5,313H160.1c-9.8,0-17.7-7.9-17.7-17.7v-14c0-9.8,7.9-17.7,17.7-17.7h140.4c9.8,0,17.7,7.9,17.7,17.7&#10;&#9;&#9;v13.9C318.2,305,310.3,313,300.5,313z M160.1,267.3c-7.7,0-14,6.3-14,14v13.9c0,7.7,6.3,14,14,14h140.4c7.7,0,14-6.3,14-14v-13.9&#10;&#9;&#9;c0-7.7-6.3-14-14-14L160.1,267.3z"/>
	<path class="st1_authentication-2-85" d="M171.7,302c-1,0-1.8-0.8-1.8-1.8c0,0,0,0,0,0v-23.8c0-1,0.8-1.9,1.8-1.9c1,0,1.9,0.8,1.9,1.8c0,0,0,0,0,0v23.8&#10;&#9;&#9;C173.5,301.2,172.7,302,171.7,302z"/>
	<path class="st1_authentication-2-85" d="M161.3,296c-1,0-1.8-0.8-1.8-1.9c0-0.7,0.4-1.3,0.9-1.6l20.7-11.7c0.9-0.5,2-0.2,2.5,0.6&#10;&#9;&#9;c0.5,0.9,0.2,2-0.6,2.5c0,0-0.1,0-0.1,0l-20.7,11.7C162,295.9,161.6,296,161.3,296z"/>
	<path class="st1_authentication-2-85" d="M182,296c-0.3,0-0.6-0.1-0.9-0.2l-20.7-11.7c-0.9-0.5-1.2-1.7-0.6-2.5c0.5-0.8,1.6-1.1,2.5-0.7l20.7,11.7&#10;&#9;&#9;c0.9,0.5,1.2,1.6,0.7,2.5C183.3,295.6,182.7,296,182,296z"/>
	<path class="st1_authentication-2-85" d="M210.8,302c-1,0-1.8-0.8-1.8-1.8c0,0,0,0,0,0v-23.8c0-1,0.8-1.8,1.9-1.8c1,0,1.8,0.8,1.8,1.8v23.8&#10;&#9;&#9;C212.6,301.2,211.8,302,210.8,302z"/>
	<path class="st1_authentication-2-85" d="M200.4,296c-1,0-1.8-0.8-1.8-1.9c0-0.7,0.4-1.3,0.9-1.6l20.7-11.7c0.9-0.5,2-0.1,2.5,0.8&#10;&#9;&#9;c0.5,0.9,0.2,1.9-0.7,2.5l-20.7,11.7C201.1,295.9,200.7,296,200.4,296z"/>
	<path class="st1_authentication-2-85" d="M221.1,296c-0.3,0-0.6-0.1-0.9-0.2l-20.7-11.7c-0.9-0.5-1.2-1.7-0.6-2.5c0.5-0.8,1.6-1.1,2.5-0.7l20.7,11.7&#10;&#9;&#9;c0.9,0.5,1.2,1.6,0.7,2.5C222.4,295.6,221.8,296,221.1,296L221.1,296z"/>
	<path class="st1_authentication-2-85" d="M249.9,302c-1,0-1.8-0.8-1.8-1.8c0,0,0,0,0,0v-23.8c0-1,0.8-1.8,1.9-1.8c1,0,1.8,0.8,1.8,1.8v23.8&#10;&#9;&#9;C251.7,301.2,250.9,302,249.9,302z"/>
	<path class="st1_authentication-2-85" d="M239.5,296c-1,0-1.8-0.8-1.8-1.9c0-0.7,0.4-1.3,0.9-1.6l20.7-11.7c0.9-0.4,2-0.1,2.5,0.9&#10;&#9;&#9;c0.4,0.8,0.1,1.9-0.7,2.4l-20.7,11.7C240.2,295.9,239.9,296,239.5,296z"/>
	<path class="st1_authentication-2-85" d="M260.2,296c-0.3,0-0.6-0.1-0.9-0.2l-20.7-11.7c-0.9-0.5-1.2-1.7-0.6-2.5c0.5-0.8,1.6-1.1,2.5-0.7l20.7,11.7&#10;&#9;&#9;c0.9,0.5,1.2,1.6,0.7,2.5C261.5,295.6,260.9,296,260.2,296L260.2,296z"/>
	<path class="st1_authentication-2-85" d="M289,302c-1,0-1.8-0.8-1.8-1.8c0,0,0,0,0,0v-23.8c0-1,0.8-1.9,1.9-1.9s1.9,0.8,1.9,1.9v23.8&#10;&#9;&#9;C290.8,301.2,290,302,289,302z"/>
	<path class="st1_authentication-2-85" d="M278.6,296c-1,0-1.8-0.8-1.8-1.9c0-0.7,0.4-1.3,0.9-1.6l20.7-11.7c0.9-0.4,2-0.1,2.5,0.9&#10;&#9;&#9;c0.4,0.8,0.1,1.9-0.7,2.4l-20.7,11.7C279.3,295.9,279,296,278.6,296z"/>
	<path class="st1_authentication-2-85" d="M299.4,296c-0.3,0-0.6-0.1-0.9-0.2l-20.7-11.7c-0.9-0.5-1.2-1.7-0.6-2.5c0.5-0.8,1.6-1.1,2.5-0.7l20.7,11.7&#10;&#9;&#9;c0.9,0.5,1.2,1.6,0.7,2.5C300.6,295.6,300,296,299.4,296L299.4,296z"/>
	<path class="st3_authentication-2-85" d="M190.8,195c-0.4,0-0.8-0.1-1.2-0.4l-10.5-8.5c-0.8-0.6-0.9-1.8-0.3-2.6s1.8-0.9,2.6-0.3l10.6,8.5&#10;&#9;&#9;c0.8,0.6,0.9,1.8,0.3,2.6C191.9,194.8,191.4,195,190.8,195L190.8,195z"/>
	<path class="st3_authentication-2-85" d="M185.6,206.5c-0.1,0-0.3,0-0.4,0l-13.9-3.1c-1-0.3-1.6-1.3-1.3-2.3c0.2-0.9,1.2-1.5,2.1-1.4l13.9,3&#10;&#9;&#9;c1,0.2,1.6,1.2,1.4,2.2C187.2,205.9,186.5,206.5,185.6,206.5L185.6,206.5z"/>
	<path class="st3_authentication-2-85" d="M173.6,224.8c-1,0-1.9-0.8-1.9-1.8c0-0.8,0.5-1.5,1.3-1.8l12-3.7c1-0.3,2,0.2,2.3,1.2s-0.2,2-1.2,2.3l0,0&#10;&#9;&#9;l-12,3.7C173.9,224.8,173.7,224.8,173.6,224.8z"/>
</g>
<g id="key_authentication-2-85">
	<path class="st4_authentication-2-85" d="M359.1,201.7c8.5,0.2,16.5,4.4,21.6,11.2c7.3,9.6,8.5,20,3.4,31c-5.2,11.2-17,17.9-29.3,16.5&#10;&#9;&#9;c-11-1.1-19-6.9-23.9-16.9c-0.4-0.9-1-1.4-2-1.3c-4.1,0.5-8.2-0.5-11.6-2.8l-0.2-0.1c-0.6-0.4-1.4-0.4-1.9,0.1&#10;&#9;&#9;c-1.8,1.2-3.6,2.4-5.4,3.6c-0.7,0.7-1.8,0.7-2.5,0c-1.7-1.2-3.5-2.3-5.1-3.5c-0.5-0.5-1.4-0.5-1.9,0c-1.8,1.3-3.7,2.4-5.5,3.7&#10;&#9;&#9;c-0.5,0.6-1.4,0.6-2,0.1c-0.1-0.1-0.2-0.2-0.3-0.3c-1-1.1-2.1-2-3.1-3.1c-0.3-0.5-1-0.7-1.6-0.3c-0.1,0-0.1,0.1-0.2,0.1&#10;&#9;&#9;c-1.7,1.2-3.5,2.3-5.2,3.5c-0.6,0.5-1.4,0.5-2,0c-3.8-2.9-7.7-5.8-11.6-8.6c-0.9-0.6-0.9-1-0.1-1.8c3.5-3.4,7-6.9,10.5-10.5&#10;&#9;&#9;c0.8-0.8,1.9-1.3,3-1.3c15.2,0,30.5,0,45.7,0.1c1.1,0.1,2.1-0.5,2.4-1.6c5.3-11.5,14.4-17.3,27-18L359.1,201.7z M360.1,221.4&#10;&#9;&#9;c-5.4,0-9.7,4.4-9.6,9.7c0,5.4,4.4,9.7,9.7,9.6s9.7-4.4,9.6-9.7C369.8,225.7,365.4,221.4,360.1,221.4L360.1,221.4z"/>
	<path class="st1_authentication-2-85" d="M357.9,262.5c-1.1,0-2.1-0.1-3.2-0.2c-11.6-1.2-20.1-7.2-25.3-17.9c0-0.1-0.1-0.2-0.1-0.3&#10;&#9;&#9;c-4.5,0.5-9-0.6-12.8-3.1c0,0,0,0-0.1,0l-2.5,1.7c-1,0.6-1.9,1.3-2.9,1.9c-1.4,1.1-3.4,1.1-4.7,0c-0.9-0.7-1.9-1.3-2.8-1.9&#10;&#9;&#9;c-0.7-0.5-1.5-1-2.2-1.5c-0.8,0.6-1.6,1.1-2.3,1.6c-1,0.7-2,1.3-3,2.1c-1.4,1.2-3.4,1-4.6-0.3c-0.1-0.1-0.1-0.2-0.2-0.2&#10;&#9;&#9;c-0.5-0.6-1.1-1.1-1.6-1.7c-0.4-0.4-0.7-0.7-1.1-1.1l-2.3,1.5c-0.9,0.6-1.7,1.1-2.5,1.7c-1.2,1-3,1-4.2,0&#10;&#9;&#9;c-3.8-2.9-7.7-5.8-11.5-8.6c-0.8-0.5-1.3-1.3-1.4-2.2c0-0.9,0.4-1.8,1.1-2.4c3.9-3.8,7.3-7.2,10.4-10.4c1.1-1.2,2.7-1.9,4.4-1.8&#10;&#9;&#9;l0,0h22c7.9,0,15.8,0,23.7,0c0.2,0,0.3,0,0.5-0.1l0,0c0.1-0.1,0.2-0.3,0.2-0.4c5.5-11.9,15.1-18.3,28.5-19.1c0.1,0,0.1,0,0.2,0h0.6&#10;&#9;&#9;l1,0.1l0,0c9.1,0.2,17.6,4.6,23,11.9c7.7,10.1,9,21.4,3.6,32.9C380.8,255.6,369.9,262.5,357.9,262.5z M329.3,240.5&#10;&#9;&#9;c1.5,0,2.8,1,3.3,2.3c4.6,9.4,12.2,14.8,22.4,15.8c11.5,1.2,22.5-5,27.4-15.5c4.8-10.3,3.7-20.1-3.2-29.1&#10;&#9;&#9;c-4.8-6.4-12.3-10.3-20.3-10.5l-1-0.1h-0.5c-12.1,0.7-20.4,6.2-25.3,16.9c-0.6,1.7-2.3,2.8-4.1,2.6l0,0c-7.9,0-15.8,0-23.7,0&#10;&#9;&#9;c-7.3,0-14.7,0-22,0l0,0c-0.7-0.1-1.3,0.2-1.7,0.7c-3,3.1-6.3,6.4-9.9,9.9c3.6,2.7,7.3,5.4,10.9,8.1c0.9-0.6,1.7-1.2,2.5-1.7&#10;&#9;&#9;s1.7-1.1,2.6-1.7c1.3-1,3.1-0.8,4.1,0.4c0.4,0.4,0.8,0.9,1.3,1.3c0.6,0.6,1.2,1.2,1.8,1.8c1-0.7,2-1.4,3.1-2.1&#10;&#9;&#9;c0.8-0.5,1.6-1,2.3-1.6c1.2-0.9,2.8-0.9,4,0c0.7,0.5,1.5,1,2.2,1.5c1,0.7,2,1.3,3,2l0.2,0.1c0.1-0.1,0.1-0.1,0.2-0.1&#10;&#9;&#9;c1-0.7,2-1.4,3-2c0.8-0.5,1.6-1.1,2.4-1.6c1.1-0.9,2.7-1,3.9-0.2l0.3,0.1c3,2.1,6.7,3,10.3,2.5C329,240.5,329.1,240.5,329.3,240.5&#10;&#9;&#9;L329.3,240.5z M360.1,242.6c-3.1,0-6.1-1.3-8.3-3.5c-2.2-2.1-3.4-5.1-3.4-8.1c0.1-6.3,5.2-11.5,11.5-11.5l0,0&#10;&#9;&#9;c6.4,0,11.6,5.1,11.6,11.5C371.6,237.4,366.5,242.6,360.1,242.6L360.1,242.6L360.1,242.6z M360.1,223.2c-4.3,0-7.8,3.5-7.9,7.8&#10;&#9;&#9;c0,2.1,0.8,4,2.3,5.5c1.5,1.5,3.5,2.4,5.6,2.4l0,0c4.3,0,7.7-3.4,7.7-7.7c0,0,0-0.1,0-0.1c0.1-4.2-3.3-7.7-7.5-7.8&#10;&#9;&#9;C360.3,223.2,360.2,223.2,360.1,223.2L360.1,223.2z M360.1,221.4L360.1,221.4z"/>
</g>
</svg>